<svg width="155" height="177" viewBox="0 0 155 177" fill="none" xmlns="http://www.w3.org/2000/svg">
<path d="M77.3434 88.6566C101.644 88.6566 121.339 68.9617 121.339 44.6611C121.339 20.3604 101.644 0.665527 77.3434 0.665527C53.0428 0.665527 33.3479 20.3604 33.3479 44.6611C33.3479 68.9617 53.0428 88.6566 77.3434 88.6566ZM108.14 99.6555H102.4C94.7698 103.161 86.28 105.155 77.3434 105.155C68.4068 105.155 59.9514 103.161 52.2866 99.6555H46.5466C21.0429 99.6555 0.351242 120.347 0.351242 145.851V160.149C0.351242 169.258 7.74112 176.648 16.8496 176.648H137.837C146.946 176.648 154.336 169.258 154.336 160.149V145.851C154.336 120.347 133.644 99.6555 108.14 99.6555Z" fill="#FB7043"/>
</svg>
