<svg width="31" height="31" viewBox="0 0 31 31" fill="none" xmlns="http://www.w3.org/2000/svg">
<g id="pet-round-svgrepo">
<path id="Vector" d="M28.0001 15.6246C28.0001 18.0969 27.2669 20.5138 25.8934 22.5695C24.5198 24.6252 22.5675 26.2274 20.2833 27.1735C17.9991 28.1197 15.4857 28.3672 13.0608 27.8849C10.636 27.4026 8.40858 26.212 6.66035 24.4638C4.91212 22.7155 3.72156 20.4881 3.23922 18.0633C2.75689 15.6384 3.00444 13.125 3.95057 10.8408C4.89671 8.55663 6.49893 6.60432 8.55463 5.23074C10.6103 3.85717 13.0272 3.12402 15.4996 3.12402C17.1411 3.12402 18.7667 3.44736 20.2833 4.07557C21.7999 4.70378 23.178 5.62456 24.3388 6.78534C25.4995 7.94612 26.4203 9.32417 27.0485 10.8408C27.6767 12.3574 28.0001 13.983 28.0001 15.6246ZM10.169 16.0224C10.6318 15.7606 10.976 15.3305 11.13 14.8216C11.2841 14.3126 11.2362 13.7639 10.9964 13.2893C10.5748 12.0893 9.52166 11.363 8.64376 11.6724C8.18138 11.9343 7.83751 12.3641 7.68346 12.8727C7.52942 13.3812 7.57702 13.9296 7.8164 14.404C8.23798 15.6056 9.29113 16.3303 10.169 16.0224ZM20.6911 17.2019C20.0157 16.5256 19.2135 15.9891 18.3306 15.623C17.4476 15.257 16.5012 15.0686 15.5453 15.0686C14.5895 15.0686 13.6431 15.257 12.7601 15.623C11.8771 15.9891 11.075 16.5256 10.3996 17.2019C9.8442 17.7819 9.53808 18.5563 9.54677 19.3592C9.55547 20.1621 9.87829 20.9297 10.4461 21.4975C11.0139 22.0653 11.7815 22.3881 12.5844 22.3968C13.3873 22.4055 14.1617 22.0994 14.7417 21.544C14.9548 21.3314 15.2435 21.212 15.5446 21.212C15.8456 21.212 16.1343 21.3314 16.3474 21.544C16.9274 22.0994 17.7018 22.4055 18.5047 22.3968C19.3076 22.3881 20.0752 22.0653 20.643 21.4975C21.2108 20.9297 21.5336 20.1621 21.5423 19.3592C21.551 18.5563 21.2449 17.7819 20.6896 17.2019H20.6911ZM11.2996 11.5303C11.4369 12.9798 12.4048 14.0724 13.4659 13.973C14.5238 13.8719 15.2706 12.6151 15.1348 11.1672C14.9974 9.71929 14.028 8.62508 12.9685 8.72613C11.9106 8.8256 11.1622 10.0824 11.2996 11.5303ZM17.6201 13.973C18.6796 14.0724 19.649 12.9782 19.7864 11.5303C19.9238 10.0824 19.1769 8.8256 18.1174 8.72613C17.0596 8.62508 16.0885 9.71929 15.9511 11.1672C15.8153 12.6167 16.5622 13.8719 17.6201 13.973ZM22.4469 11.6724C21.569 11.3646 20.5159 12.0877 20.0943 13.2893C19.8549 13.7637 19.8073 14.3121 19.9614 14.8206C20.1154 15.3292 20.4593 15.759 20.9217 16.0209C21.7996 16.3303 22.8527 15.6056 23.2743 14.404C23.5137 13.9296 23.5613 13.3812 23.4072 12.8727C23.2532 12.3641 22.9093 11.9343 22.4469 11.6724Z" fill="white"/>
</g>
</svg>
